<svg xmlns="http://www.w3.org/2000/svg" xmlns:xlink="http://www.w3.org/1999/xlink" width="1080" zoomAndPan="magnify" viewBox="0 0 810 809.999993" height="1080" preserveAspectRatio="xMidYMid meet" version="1.0"><defs><g/><clipPath id="ff0b85a9e1"><path d="M 109.9375 153.960938 L 637.1875 153.960938 L 637.1875 681.210938 L 109.9375 681.210938 Z M 109.9375 153.960938 " clip-rule="nonzero"/></clipPath><clipPath id="32a87300ce"><path d="M 521 354.40625 L 717 354.40625 L 717 599.65625 L 521 599.65625 Z M 521 354.40625 " clip-rule="nonzero"/></clipPath></defs><g clip-path="url(#ff0b85a9e1)"><path fill="#122a4e" d="M 619.441406 303.300781 L 127.507812 303.300781 L 127.507812 276.945312 C 127.507812 243.042969 155.097656 215.453125 189 215.453125 L 189 241.808594 C 189 251.484375 196.890625 259.378906 206.566406 259.378906 L 224.136719 259.378906 C 233.8125 259.378906 241.707031 251.484375 241.707031 241.808594 L 241.707031 215.453125 L 347.121094 215.453125 L 347.121094 241.808594 C 347.121094 251.484375 355.015625 259.378906 364.691406 259.378906 L 382.257812 259.378906 C 391.9375 259.378906 399.828125 251.484375 399.828125 241.808594 L 399.828125 215.453125 L 505.242188 215.453125 L 505.242188 241.808594 C 505.242188 251.484375 513.136719 259.378906 522.8125 259.378906 L 540.382812 259.378906 C 550.058594 259.378906 557.949219 251.484375 557.949219 241.808594 L 557.949219 215.453125 C 591.855469 215.453125 619.441406 243.042969 619.441406 276.945312 Z M 557.949219 663.46875 L 189 663.46875 C 155.097656 663.46875 127.507812 635.878906 127.507812 601.976562 L 127.507812 320.871094 L 619.441406 320.871094 L 619.441406 601.976562 C 619.441406 635.878906 591.855469 663.46875 557.949219 663.46875 Z M 206.566406 171.53125 L 224.136719 171.53125 L 224.171875 241.808594 L 206.566406 241.808594 Z M 364.691406 171.53125 L 382.257812 171.53125 L 382.292969 241.808594 L 364.691406 241.808594 Z M 522.8125 171.53125 L 540.382812 171.53125 L 540.417969 241.808594 L 522.8125 241.808594 Z M 557.949219 197.886719 L 557.949219 171.53125 C 557.949219 161.855469 550.058594 153.960938 540.382812 153.960938 L 522.8125 153.960938 C 513.136719 153.960938 505.242188 161.855469 505.242188 171.53125 L 505.242188 197.886719 L 399.828125 197.886719 L 399.828125 171.53125 C 399.828125 161.855469 391.9375 153.960938 382.257812 153.960938 L 364.691406 153.960938 C 355.015625 153.960938 347.121094 161.855469 347.121094 171.53125 L 347.121094 197.886719 L 241.707031 197.886719 L 241.707031 171.53125 C 241.707031 161.855469 233.8125 153.960938 224.136719 153.960938 L 206.566406 153.960938 C 196.890625 153.960938 189 161.855469 189 171.53125 L 189 197.886719 C 145.417969 197.886719 109.9375 233.332031 109.9375 276.945312 L 109.9375 601.976562 C 109.9375 645.554688 145.417969 681.035156 189 681.035156 L 557.949219 681.035156 C 601.566406 681.035156 637.011719 645.554688 637.011719 601.976562 L 637.011719 276.945312 C 637.011719 233.332031 601.566406 197.886719 557.949219 197.886719 " fill-opacity="1" fill-rule="nonzero"/></g><g clip-path="url(#32a87300ce)"><path fill="#3792a4" d="M 575.242188 516.886719 L 548.460938 490.105469 C 542.257812 483.902344 532.199219 483.902344 525.992188 490.105469 C 520.507812 495.589844 519.785156 504.234375 524.28125 510.554688 L 564.597656 567.195312 C 580.285156 587.761719 604.671875 599.832031 630.542969 599.832031 L 647.820312 599.832031 C 685.992188 599.832031 716.941406 568.886719 716.941406 530.710938 L 716.941406 406.296875 C 716.941406 398.660156 710.75 392.472656 703.117188 392.472656 C 695.480469 392.472656 689.292969 398.660156 689.292969 406.296875 L 689.292969 465.046875 L 678.921875 465.046875 L 678.921875 382.101562 C 678.921875 374.46875 672.734375 368.28125 665.101562 368.28125 L 665.097656 368.28125 C 657.464844 368.28125 651.277344 374.46875 651.277344 382.101562 L 651.277344 465.046875 L 640.90625 465.046875 L 640.90625 368.28125 C 640.90625 360.644531 634.71875 354.457031 627.082031 354.457031 C 619.449219 354.457031 613.257812 360.644531 613.257812 368.28125 L 613.257812 465.046875 L 602.890625 465.046875 L 602.890625 385.558594 C 602.890625 377.925781 596.703125 371.734375 589.066406 371.734375 C 581.433594 371.734375 575.242188 377.925781 575.242188 385.558594 Z M 575.242188 516.886719 " fill-opacity="1" fill-rule="nonzero"/></g><g fill="#122a4e" fill-opacity="1"><g transform="translate(287.521777, 550.176111)"><g><path d="M 164.9375 -45.03125 L 164.9375 0 L 8.609375 0 L 8.609375 -35.5625 L 83.765625 -105.84375 C 91.023438 -112.726562 95.894531 -118.609375 98.375 -123.484375 C 100.863281 -128.359375 102.109375 -133.285156 102.109375 -138.265625 C 102.109375 -144.765625 99.910156 -149.828125 95.515625 -153.453125 C 91.117188 -157.085938 84.710938 -158.90625 76.296875 -158.90625 C 68.835938 -158.90625 62 -157.234375 55.78125 -153.890625 C 49.570312 -150.546875 44.457031 -145.71875 40.4375 -139.40625 L -1.71875 -162.921875 C 6.125 -175.929688 17.117188 -186.164062 31.265625 -193.625 C 45.421875 -201.082031 62.15625 -204.8125 81.46875 -204.8125 C 96.757812 -204.8125 110.285156 -202.320312 122.046875 -197.34375 C 133.804688 -192.375 142.984375 -185.25 149.578125 -175.96875 C 156.179688 -166.695312 159.484375 -155.941406 159.484375 -143.703125 C 159.484375 -132.804688 157.140625 -122.53125 152.453125 -112.875 C 147.773438 -103.21875 138.738281 -92.269531 125.34375 -80.03125 L 87.484375 -45.03125 Z M 164.9375 -45.03125 "/></g></g></g><g fill="#122a4e" fill-opacity="1"><g transform="translate(257.1858, 626.048512)"><g><path d="M 71.375 -41.65625 L 56 0 L 46.640625 0 L 35.875 -28.703125 L 24.953125 0 L 15.59375 0 L 0.3125 -41.65625 L 9.515625 -41.65625 L 20.515625 -10.921875 L 31.984375 -41.65625 L 40.171875 -41.65625 L 51.40625 -10.765625 L 62.71875 -41.65625 Z M 71.375 -41.65625 "/></g></g></g><g fill="#122a4e" fill-opacity="1"><g transform="translate(322.389498, 626.048512)"><g><path d="M 45.546875 -20.59375 C 45.546875 -19.914062 45.492188 -18.953125 45.390625 -17.703125 L 12.71875 -17.703125 C 13.289062 -14.640625 14.785156 -12.207031 17.203125 -10.40625 C 19.617188 -8.613281 22.617188 -7.71875 26.203125 -7.71875 C 30.785156 -7.71875 34.554688 -9.226562 37.515625 -12.25 L 42.75 -6.234375 C 40.875 -4.003906 38.503906 -2.316406 35.640625 -1.171875 C 32.785156 -0.0234375 29.5625 0.546875 25.96875 0.546875 C 21.394531 0.546875 17.363281 -0.359375 13.875 -2.171875 C 10.394531 -3.992188 7.707031 -6.53125 5.8125 -9.78125 C 3.914062 -13.03125 2.96875 -16.710938 2.96875 -20.828125 C 2.96875 -24.878906 3.890625 -28.53125 5.734375 -31.78125 C 7.578125 -35.03125 10.132812 -37.566406 13.40625 -39.390625 C 16.6875 -41.210938 20.378906 -42.125 24.484375 -42.125 C 28.546875 -42.125 32.175781 -41.222656 35.375 -39.421875 C 38.570312 -37.628906 41.066406 -35.109375 42.859375 -31.859375 C 44.648438 -28.609375 45.546875 -24.851562 45.546875 -20.59375 Z M 24.484375 -34.3125 C 21.367188 -34.3125 18.734375 -33.390625 16.578125 -31.546875 C 14.421875 -29.703125 13.109375 -27.25 12.640625 -24.1875 L 36.265625 -24.1875 C 35.847656 -27.195312 34.570312 -29.632812 32.4375 -31.5 C 30.3125 -33.375 27.660156 -34.3125 24.484375 -34.3125 Z M 24.484375 -34.3125 "/></g></g></g><g fill="#122a4e" fill-opacity="1"><g transform="translate(364.428504, 626.048512)"><g><path d="M 45.546875 -20.59375 C 45.546875 -19.914062 45.492188 -18.953125 45.390625 -17.703125 L 12.71875 -17.703125 C 13.289062 -14.640625 14.785156 -12.207031 17.203125 -10.40625 C 19.617188 -8.613281 22.617188 -7.71875 26.203125 -7.71875 C 30.785156 -7.71875 34.554688 -9.226562 37.515625 -12.25 L 42.75 -6.234375 C 40.875 -4.003906 38.503906 -2.316406 35.640625 -1.171875 C 32.785156 -0.0234375 29.5625 0.546875 25.96875 0.546875 C 21.394531 0.546875 17.363281 -0.359375 13.875 -2.171875 C 10.394531 -3.992188 7.707031 -6.53125 5.8125 -9.78125 C 3.914062 -13.03125 2.96875 -16.710938 2.96875 -20.828125 C 2.96875 -24.878906 3.890625 -28.53125 5.734375 -31.78125 C 7.578125 -35.03125 10.132812 -37.566406 13.40625 -39.390625 C 16.6875 -41.210938 20.378906 -42.125 24.484375 -42.125 C 28.546875 -42.125 32.175781 -41.222656 35.375 -39.421875 C 38.570312 -37.628906 41.066406 -35.109375 42.859375 -31.859375 C 44.648438 -28.609375 45.546875 -24.851562 45.546875 -20.59375 Z M 24.484375 -34.3125 C 21.367188 -34.3125 18.734375 -33.390625 16.578125 -31.546875 C 14.421875 -29.703125 13.109375 -27.25 12.640625 -24.1875 L 36.265625 -24.1875 C 35.847656 -27.195312 34.570312 -29.632812 32.4375 -31.5 C 30.3125 -33.375 27.660156 -34.3125 24.484375 -34.3125 Z M 24.484375 -34.3125 "/></g></g></g><g fill="#122a4e" fill-opacity="1"><g transform="translate(406.46751, 626.048512)"><g><path d="M 23.40625 -17.859375 L 16.140625 -11 L 16.140625 0 L 6.390625 0 L 6.390625 -57.875 L 16.140625 -57.875 L 16.140625 -22.9375 L 36.34375 -41.65625 L 48.046875 -41.65625 L 30.65625 -24.1875 L 49.6875 0 L 37.828125 0 Z M 23.40625 -17.859375 "/></g></g></g><g fill="#122a4e" fill-opacity="1"><g transform="translate(449.598454, 626.048512)"><g><path d="M 19.265625 0.546875 C 15.890625 0.546875 12.585938 0.101562 9.359375 -0.78125 C 6.140625 -1.664062 3.566406 -2.785156 1.640625 -4.140625 L 5.375 -11.546875 C 7.25 -10.296875 9.5 -9.289062 12.125 -8.53125 C 14.75 -7.78125 17.335938 -7.40625 19.890625 -7.40625 C 25.710938 -7.40625 28.625 -8.941406 28.625 -12.015625 C 28.625 -13.472656 27.882812 -14.484375 26.40625 -15.046875 C 24.925781 -15.617188 22.546875 -16.164062 19.265625 -16.6875 C 15.835938 -17.207031 13.039062 -17.804688 10.875 -18.484375 C 8.71875 -19.160156 6.847656 -20.34375 5.265625 -22.03125 C 3.679688 -23.71875 2.890625 -26.070312 2.890625 -29.09375 C 2.890625 -33.039062 4.539062 -36.195312 7.84375 -38.5625 C 11.144531 -40.9375 15.601562 -42.125 21.21875 -42.125 C 24.070312 -42.125 26.929688 -41.796875 29.796875 -41.140625 C 32.660156 -40.492188 35 -39.625 36.8125 -38.53125 L 33.078125 -31.125 C 29.535156 -33.195312 25.554688 -34.234375 21.140625 -34.234375 C 18.273438 -34.234375 16.101562 -33.804688 14.625 -32.953125 C 13.144531 -32.097656 12.40625 -30.96875 12.40625 -29.5625 C 12.40625 -28 13.195312 -26.890625 14.78125 -26.234375 C 16.363281 -25.585938 18.820312 -24.976562 22.15625 -24.40625 C 25.476562 -23.894531 28.207031 -23.300781 30.34375 -22.625 C 32.476562 -21.945312 34.3125 -20.800781 35.84375 -19.1875 C 37.375 -17.570312 38.140625 -15.285156 38.140625 -12.328125 C 38.140625 -8.421875 36.445312 -5.296875 33.0625 -2.953125 C 29.6875 -0.617188 25.085938 0.546875 19.265625 0.546875 Z M 19.265625 0.546875 "/></g></g></g></svg>