<?xml version="1.0" encoding="UTF-8"?>
<svg version="1.1" xmlns="http://www.w3.org/2000/svg" width="512" height="512">
<path d="M0 0 C87.78 0 175.56 0 266 0 C266 105.6 266 211.2 266 320 C178.22 320 90.44 320 0 320 C0 214.4 0 108.8 0 0 Z M46 46 C46 55.57 46 65.14 46 75 C103.42 75 160.84 75 220 75 C220 65.43 220 55.86 220 46 C162.58 46 105.16 46 46 46 Z M46 106 C46 115.57 46 125.14 46 135 C103.42 135 160.84 135 220 135 C220 125.43 220 115.86 220 106 C162.58 106 105.16 106 46 106 Z M46 166 C46 175.57 46 185.14 46 195 C103.42 195 160.84 195 220 195 C220 185.43 220 175.86 220 166 C162.58 166 105.16 166 46 166 Z " fill="#000000" transform="translate(123,117)"/>
<path d="M0 0 C30.03 0 60.06 0 91 0 C91 15.18 91 30.36 91 46 C76.15 46 61.3 46 46 46 C46 171.07 46 296.14 46 425 C152.92 425 259.84 425 370 425 C370 299.93 370 174.86 370 46 C355.15 46 340.3 46 325 46 C325 30.82 325 15.64 325 0 C355.03 0 385.06 0 416 0 C416 155.1 416 310.2 416 470 C278.72 470 141.44 470 0 470 C0 314.9 0 159.8 0 0 Z " fill="#000000" transform="translate(48,42)"/>
<path d="M0 0 C11.36752618 8.45241824 19.75112178 18.56923071 22.125 32.8125 C33.015 32.8125 43.905 32.8125 55.125 32.8125 C55.125 47.9925 55.125 63.1725 55.125 78.8125 C-2.955 78.8125 -61.035 78.8125 -120.875 78.8125 C-120.875 63.6325 -120.875 48.4525 -120.875 32.8125 C-109.985 32.8125 -99.095 32.8125 -87.875 32.8125 C-87.215 29.8425 -86.555 26.8725 -85.875 23.8125 C-79.45234052 9.17725954 -66.63002704 -1.43538584 -52 -7.1875 C-34.32596891 -12.52237181 -15.3523882 -10.31999265 0 0 Z " fill="#000000" transform="translate(288.875,9.1875)"/>
</svg>
